<svg xmlns="http://www.w3.org/2000/svg" xmlns:xlink="http://www.w3.org/1999/xlink" width="831" zoomAndPan="magnify" viewBox="0 0 623.25 252.749997" height="337" preserveAspectRatio="xMidYMid meet" version="1.2"><defs><clipPath id="0241a8a612"><path d="M 1 4 L 621 4 L 621 251.722656 L 1 251.722656 Z M 1 4 "/></clipPath></defs><g id="b36be6c77e"><g clip-rule="nonzero" clip-path="url(#0241a8a612)"><path style=" stroke:black;fill-rule:evenodd;fill:#ffffff;fill-opacity:1;" d="M 41.300781 102.949219 C 33.960938 108.078125 26.859375 113.777344 20.886719 120.003906 C 11.960938 129.332031 5.636719 139.84375 4.554688 151.355469 C 0.0742188 165.296875 1.15625 178.507812 6.960938 190.480469 C 21.117188 219.703125 64.671875 241.816406 126.558594 248.246094 C 143.152344 249.964844 159.773438 250.828125 176.410156 251.082031 C 193 251.332031 209.621094 250.976562 226.226562 250.285156 C 255.890625 249.042969 285.644531 245.65625 315.21875 240.953125 C 344.726562 236.257812 374.054688 230.246094 402.910156 223.691406 C 403.203125 223.625 403.445312 223.488281 403.660156 223.296875 C 430.839844 219.335938 457.773438 214.503906 484.285156 208.90625 C 506.878906 204.136719 550.542969 196.460938 582.171875 179.273438 C 605.207031 166.75 621.84375 149.164062 620.578125 124.425781 C 619.3125 99.367188 606.578125 79.628906 588.476562 64.003906 C 562.5 41.589844 525.402344 27.6875 496.167969 18.691406 C 437.953125 0.664062 357.707031 0.527344 279.066406 12.855469 C 200.816406 25.125 124.167969 49.738281 72.382812 81.054688 C 60.390625 88.347656 50.0625 95.667969 41.300781 102.949219 Z M 9.082031 174.90625 C 9.71875 179.273438 11.015625 183.511719 12.964844 187.597656 C 26.296875 215.582031 68.132812 236.058594 127.167969 242.644531 C 143.578125 244.476562 160.03125 245.453125 176.5 245.839844 C 193.015625 246.230469 209.53125 246.03125 226.0625 245.492188 C 255.539062 244.539062 285.171875 241.46875 314.625 237.050781 C 331.335938 234.542969 348.003906 231.601562 364.550781 228.375 C 344.972656 230.609375 325.304688 232.371094 305.605469 233.632812 C 245.164062 237.507812 184.4375 236.671875 125.203125 230.441406 C 100.550781 227.792969 66.59375 222.347656 41.027344 207.878906 C 26.9375 199.90625 15.386719 189.226562 9.082031 174.90625 Z M 10.253906 156.515625 C 10.328125 157.972656 10.527344 159.441406 10.816406 160.929688 C 14.640625 180.097656 27.558594 193.257812 44.058594 202.484375 C 68.953125 216.398438 101.953125 221.433594 125.890625 223.890625 C 184.773438 230.070312 245.105469 230.777344 305.191406 227.023438 C 365.3125 223.265625 425.1875 215.042969 483.050781 203.03125 C 505.292969 198.421875 548.316406 191.132812 579.488281 174.332031 C 600.574219 162.96875 616.265625 147.285156 615.183594 124.6875 C 614.058594 101.167969 602.023438 82.65625 585.035156 67.984375 C 559.621094 46.035156 523.210938 32.609375 494.582031 23.839844 C 440.023438 7.210938 366.011719 6.65625 292.347656 17.269531 C 320.550781 15.019531 348.613281 15.0625 375.839844 17.546875 C 376.617188 17.613281 377.195312 18.300781 377.117188 19.078125 C 377.058594 19.851562 376.371094 20.429688 375.59375 20.359375 C 325.714844 16.1875 273.046875 20.289062 221.976562 31.671875 C 171 43.035156 121.621094 61.664062 78.277344 86.601562 C 74.394531 88.832031 69.824219 91.394531 64.902344 94.273438 C 42.003906 109.558594 26.539062 124.8125 17.65625 139.492188 C 14.167969 145.28125 11.699219 150.964844 10.253906 156.515625 Z M 10.253906 156.515625 "/></g><g style="fill:#ffffff;fill-opacity:1;"><g transform="translate(502.008198, 205.709687)"><path style="stroke:black" d="M 2.828125 -1.203125 C 2.828125 -1.992188 2.492188 -2.390625 1.828125 -2.390625 C 1.453125 -2.390625 1.125 -2.242188 0.84375 -1.953125 C 0.570312 -1.660156 0.4375 -1.328125 0.4375 -0.953125 C 0.4375 -0.191406 0.769531 0.1875 1.4375 0.1875 C 1.800781 0.1875 2.125 0.0507812 2.40625 -0.21875 C 2.6875 -0.5 2.828125 -0.828125 2.828125 -1.203125 Z M 2.828125 -1.203125 "/></g></g></g></svg>