<svg width="272" height="276" viewBox="0 0 272 276" fill="none" xmlns="http://www.w3.org/2000/svg">
<mask id="mask0_69_3" style="mask-type:luminance" maskUnits="userSpaceOnUse" x="0" y="0" width="272" height="276">
<path d="M0 276H272V-1.35952e-05H0V276Z" fill="white"/>
</mask>
<g mask="url(#mask0_69_3)">
<path d="M80.5217 187.464C80.6667 186.981 80.6667 186.981 80.5217 187.464ZM248.889 162.383C251.443 159.906 254.068 157.429 256.622 154.952C254.433 157.489 251.88 159.966 248.889 162.383ZM200.961 172.779C200.888 172.719 200.816 172.719 200.961 172.779ZM177.327 205.655C177.327 205.715 177.327 205.715 177.327 205.655C177.254 205.593 177.034 205.473 177.327 205.655ZM92.9227 183.474C92.8502 183.537 92.7777 183.657 92.6327 183.717C92.3401 183.354 92.0475 182.992 91.7575 182.629C92.1199 182.872 92.5576 183.174 92.9227 183.474ZM224.377 -3.43427e-06C224.087 -3.43427e-06 224.012 -3.43427e-06 224.377 -3.43427e-06ZM271.503 130.294C271.211 123.223 271.723 116.032 270.335 109.143C269.17 103.221 266.179 97.4798 263.551 91.7984C261.8 87.9915 259.395 84.3047 256.914 80.738C254.944 77.8384 252.463 75.1789 250.202 72.3994C250.057 72.217 249.91 71.9769 250.275 71.4321C244.803 66.3555 239.114 61.4013 233.863 56.1424C228.829 51.1258 222.554 47.5013 216.063 43.9969C215.26 43.5722 214.457 43.1497 213.654 42.6671C213.509 42.6049 213.362 42.5448 213.217 42.4848C211.684 41.2774 210.153 40.0077 208.548 38.858C206.36 37.2882 204.099 35.716 201.691 34.3863C199.575 33.2389 197.167 32.454 194.979 31.4267C193.666 30.8218 192.426 30.0347 191.113 29.432C190.748 29.2497 190.238 29.372 190.238 29.372C189.873 28.8272 189.8 28.2824 189.435 28.1023C185.934 26.5302 182.361 25.0804 178.785 23.5683C176.451 22.541 174.263 21.3936 171.27 20.0038C186.664 18.494 200.961 15.5321 214.822 11.0003C216.865 10.3355 218.906 9.60833 220.949 8.94346C224.305 7.79607 224.377 5.56131 223.795 3.02192C223.575 2.11467 224.232 1.02732 224.453 -3.43427e-06C224.377 -3.43427e-06 224.305 -3.43427e-06 224.232 -3.43427e-06C221.824 1.08735 220.146 1.93456 218.396 2.65947C217.52 3.02192 216.573 3.26429 215.625 3.56671C215.553 3.56671 215.332 3.32433 215.115 3.20426C214.53 3.20426 213.947 3.20426 212.924 3.20426C213.144 2.90184 213.072 3.02192 212.924 3.14199C212.779 2.96188 212.634 2.77954 212.562 2.65947C210.081 3.44441 207.6 4.23158 205.047 4.89644C201.764 5.80146 198.48 6.64867 195.199 7.49365C193.084 7.9784 190.968 8.34086 188.852 8.76335C186.882 9.18584 184.914 9.54829 182.943 10.0931C182.651 10.1531 182.651 11.0604 182.578 11.5429C179.587 12.0276 176.524 12.4501 173.898 12.8726C172.803 12.8126 171.928 12.8126 171.125 12.7526C171.27 12.6303 171.562 12.3278 172.293 11.663C167.917 11.663 163.903 11.663 159.744 11.663C160.182 11.4228 160.474 11.2405 161.132 10.7579C160.182 10.818 159.819 10.878 159.454 10.9381C159.454 10.878 159.382 10.758 159.382 10.6979C159.964 10.5756 160.474 10.4555 161.642 10.2132C159.527 10.2132 157.994 10.2132 156.316 10.2132C156.608 10.4555 156.753 10.6357 156.973 10.818C155.44 11.0003 153.983 11.1804 152.522 11.3628C153.397 11.6029 154.275 11.8453 155.075 12.0276C155.075 11.9654 155.15 11.8453 155.15 11.7853C154.785 11.663 154.42 11.6029 153.835 11.4228C155.223 11.4228 156.243 11.4228 157.921 11.4228C156.316 11.9053 155.44 12.3901 154.42 12.3901C153.545 12.4501 152.597 12.0276 151.722 11.8453C151.939 11.6652 152.16 11.4829 152.377 11.3005C148.218 10.5756 144.135 9.91074 139.976 9.18584C139.976 9.30814 139.904 9.42822 139.904 9.54829C141.289 9.73063 142.747 9.91074 144.425 10.0931C143.915 10.1531 143.622 10.2132 143.332 10.2732C143.697 10.3355 143.915 10.3355 144.135 10.3955C144.135 10.4555 144.135 10.5756 144.135 10.6356C143.405 10.6356 142.674 10.5156 142.019 10.6356C141.361 10.7579 140.559 11.0003 140.121 11.3628C139.831 11.6029 140.049 12.2678 140.049 12.7526C137.203 12.8126 137.788 14.5648 138.005 16.3771C138.078 16.7395 137.058 17.2843 136.475 17.7068C136.327 17.8291 135.962 17.8291 135.745 17.8892C136.038 18.494 136.11 19.2189 136.62 19.6414C137.278 20.1862 138.371 20.4263 139.101 20.9711C140.631 21.9984 142.019 23.2059 143.622 24.2332C147.126 26.5302 150.844 28.7071 154.275 31.0642C156.901 32.8765 159.454 34.811 161.787 36.9257C166.529 41.3374 171.783 45.5067 175.576 50.4632C179.732 56.0223 183.746 62.0039 181.558 69.1973C181.483 69.4975 181.558 69.8622 181.558 70.4048C182.068 70.1624 182.433 69.9222 182.798 69.7999C183.088 69.6799 183.381 69.5598 183.598 69.4375C183.746 69.7999 183.891 70.1624 184.036 70.5871C189.142 65.9931 188.342 49.0712 183.381 47.379C183.016 46.3517 182.651 45.4467 182.361 44.5995C177.692 37.2882 171.125 31.2443 163.61 25.6852C166.966 27.1951 170.47 28.7071 173.751 30.277C180.535 33.5413 187.247 36.8657 193.886 40.25C197.68 42.1824 201.546 44.1169 205.264 46.1716C208.038 47.6814 210.736 49.2535 213.217 51.0058C219.419 55.4175 225.69 59.7091 231.527 64.4232C236.633 68.5325 241.085 73.1243 245.899 77.4759C246.481 78.0207 247.139 78.6233 247.722 79.1681C248.014 79.7129 248.307 80.2555 248.597 80.8003C248.962 80.6179 249.182 80.4979 249.399 80.3756C249.547 80.5579 249.765 80.8003 249.91 80.9804C250.057 81.0404 250.13 81.1027 250.275 81.1627C250.422 81.3428 250.64 81.5852 250.785 81.7676H250.712C250.64 81.8276 250.567 81.8876 250.495 82.0077C250.933 82.7949 251.37 83.5198 251.808 84.3047C254.213 87.8092 256.842 91.2536 258.882 94.8803C262.968 102.012 266.397 109.385 266.397 117.544C266.469 117.421 266.542 117.301 266.689 116.879C266.907 117.664 267.055 118.269 267.2 118.811C267.272 118.993 267.127 119.174 267.42 119.356C268.147 132.471 265.084 144.496 256.256 154.77C257.644 153.44 259.03 152.11 260.343 150.78C260.488 150.903 260.708 151.023 260.853 151.143C256.256 155.677 251.66 160.209 247.139 164.74C246.994 164.62 246.774 164.56 246.629 164.44C246.409 164.74 246.116 165.043 245.899 165.345C245.754 165.405 245.678 165.467 245.899 165.345C244.878 165.467 243.71 165.467 242.763 165.768C239.259 166.857 235.903 168.187 232.402 169.152C230.434 169.697 228.171 169.817 226.348 170.604C224.012 171.207 221.752 171.872 219.419 172.476C219.419 172.356 219.419 172.174 219.346 172.054C217.375 172.054 215.405 172.054 213.437 172.054C213.437 172.114 213.437 172.174 213.437 172.296C213.727 172.356 214.092 172.356 215.477 172.536C213.437 172.659 212.487 172.719 211.539 172.779C211.539 172.899 211.539 173.081 211.539 173.201C214.967 173.081 218.323 172.899 222.992 172.719C221.607 173.444 221.169 173.806 220.659 173.866C217.448 174.048 214.164 174.169 210.371 174.351C211.029 174.048 211.246 173.988 211.321 173.926C210.008 173.806 208.62 173.686 207.163 173.564C207.163 173.444 207.163 173.384 207.163 173.261C207.673 173.261 208.183 173.201 208.693 173.201C208.693 173.141 208.693 173.081 208.693 173.021C207.163 173.021 205.557 173.021 203.076 173.021C204.172 172.719 204.389 172.659 204.609 172.596C204.464 172.596 204.317 172.596 204.172 172.596C202.786 172.596 201.398 172.596 200.961 172.596C200.743 172.536 200.596 172.536 200.523 172.536C200.523 172.536 200.596 172.536 200.671 172.536C200.671 172.596 200.671 172.659 200.671 172.719C197.022 172.234 193.374 171.812 189.728 171.329V171.389C189.29 171.329 188.78 171.329 188.05 171.207C187.977 171.207 187.612 171.207 186.882 171.207C187.319 171.027 187.54 170.967 187.757 170.844C186.954 170.664 186.152 170.422 185.351 170.242C185.351 170.179 185.276 170.059 185.276 169.999C186.227 170.059 187.247 170.119 188.342 170.179C188.05 170.482 187.905 170.664 187.757 170.844C188.342 170.604 188.925 170.422 189.728 170.059C186.954 169.274 184.256 168.427 181.338 167.582C181.558 168.247 181.703 168.609 182.068 169.514C181.12 168.85 180.683 168.549 180.245 168.247C180.39 168.125 180.607 168.005 180.755 167.885C177.617 167.037 174.481 166.192 171.345 165.345C171.345 165.405 171.27 165.467 171.27 165.528C171.635 165.708 172 165.83 172.365 166.01C172.365 166.13 172.293 166.312 172.293 166.433C171.27 166.312 170.25 166.192 168.499 165.95C169.374 165.467 169.667 165.345 169.884 165.285C163.903 162.988 160.912 158.274 156.828 154.407C154.713 152.352 152.232 150.54 149.896 148.666C147.636 146.793 145.593 144.616 142.894 143.167C139.318 141.232 135.235 139.902 131.296 138.392C130.931 138.272 129.981 139.057 129.326 139.36C128.668 139.662 127.94 139.965 126.99 140.387C127.503 140.265 127.72 140.205 127.72 140.205C127.282 141.292 126.772 142.442 126.19 143.771C126.042 143.167 125.97 142.684 125.825 142.199C125.749 142.199 125.749 142.199 125.677 142.199C125.825 143.047 126.042 143.952 125.97 144.739C125.749 146.913 123.344 149.15 125.677 151.325C129.543 154.952 133.484 158.576 137.715 161.961C139.756 163.653 142.457 164.803 144.938 166.13C145.228 166.312 145.738 166.13 146.178 166.13C146.978 166.433 148.073 166.795 149.021 167.28C152.45 168.85 155.733 170.664 159.306 171.994C166.091 174.411 167.551 179.97 170.105 184.624C173.023 189.881 174.701 195.622 176.741 201.244C177.179 202.391 176.817 203.781 176.817 205.353V205.413C176.596 206.32 176.596 207.588 175.866 208.072C173.023 210.067 169.957 211.939 166.821 213.691C165.946 214.236 164.561 214.176 163.61 214.416C163.758 214.539 163.83 214.659 163.975 214.841C163.538 215.021 163.1 215.444 162.662 215.444C155.223 215.264 147.781 215.144 140.341 214.719C138.153 214.599 136.11 213.511 133.922 212.967C132.609 212.604 131.149 212.484 129.763 212.242C129.398 212.182 129.181 211.939 128.523 211.577C129.618 211.637 130.346 211.697 131.004 211.759C131.004 211.637 131.076 211.517 131.076 211.397C128.888 210.792 126.627 210.247 124.437 209.642C123.489 209.402 122.614 208.977 121.666 208.615C117.142 206.923 112.546 205.231 108.025 203.478C103.866 201.908 103.356 198.162 101.313 195.38C98.3218 191.393 95.186 187.404 91.975 183.537C91.9025 183.657 91.7575 183.717 91.6823 183.839C90.0043 182.267 88.2539 180.755 86.5759 179.185C85.7758 178.64 84.9731 178.035 84.1703 177.493C84.3153 177.373 84.4603 177.251 84.6079 177.13C85.263 177.795 85.9933 178.46 86.6511 179.185C88.1814 180.272 89.6419 181.42 91.1722 182.509C90.9548 182.207 90.7346 181.965 90.5171 181.662C88.4015 179.063 86.2859 176.406 83.6602 174.169C79.9391 170.967 76.0006 167.762 71.5492 165.165C69.5061 163.955 66.2253 164.258 63.7446 163.895C63.5244 164.258 63.3794 164.74 63.2344 164.74C60.1684 164.983 58.8556 166.495 58.2005 168.85C57.4702 171.691 55.4996 174.531 57.9803 177.373C61.4088 181.3 64.8373 185.229 68.3409 189.096C70.0162 190.908 71.9143 192.54 73.885 194.172C75.3428 195.38 76.8758 196.469 78.4786 197.617C78.8437 197.859 79.429 197.979 80.4492 198.402C81.9822 199.551 83.7327 201.304 85.9208 202.633C90.152 205.231 95.0383 207.225 98.8319 210.127C100.73 211.517 101.533 214.416 101.823 216.713C102.408 221.972 102.77 227.349 102.408 232.608C102.043 237.925 99.1245 242.519 94.6007 246.386C93.2153 247.535 92.3401 249.105 90.9548 250.255C89.6419 251.342 87.8887 252.127 86.3584 253.094C85.9933 253.337 85.8483 253.759 85.4832 254.122C85.4107 254.002 85.4107 253.879 85.4107 253.819C83.0749 255.269 80.7419 257.084 78.1162 258.291C75.0501 259.681 71.6217 260.588 68.2657 261.495C68.5584 261.435 68.7785 261.373 69.0685 261.313C69.141 261.495 69.2886 261.675 69.3611 261.858C67.7556 262.4 66.2253 263.005 64.6198 263.55C63.3069 264.032 62.0666 264.697 60.6812 264.94C59.4409 265.182 58.128 264.88 56.45 264.82C55.8647 264.94 54.772 265.242 53.5317 265.544C53.6766 265.302 53.7491 265.12 53.7491 265C46.2371 265.725 38.7949 266.389 31.2802 267.114C31.2802 266.934 31.2078 266.812 31.2078 266.632C31.3554 266.572 31.5004 266.572 31.7179 266.512C31.4279 266.449 31.2078 266.449 30.9903 266.389C30.9903 266.329 30.9903 266.269 30.9903 266.147C33.1059 266.147 35.1463 266.147 37.2619 266.147C37.2619 266.087 37.2619 265.967 37.2619 265.907C36.972 265.847 36.6793 265.785 36.0967 265.725C36.6068 265.482 36.8995 265.422 37.1169 265.302C32.0105 265 26.8316 264.637 20.5572 264.275C22.2352 265.182 23.1105 265.665 24.2783 266.269C22.893 266.147 21.6526 266.027 20.4123 265.907C21.2875 266.269 22.0903 266.632 23.8407 267.357C20.4848 266.692 17.6389 266.087 14.7957 265.484C14.8682 265.422 14.8682 265.362 14.9407 265.302C11.3673 264.032 7.79114 262.765 4.2177 261.495C3.99755 261.798 3.78008 262.1 3.63242 262.4C3.99755 262.765 4.43517 263.127 4.87278 263.55C4.07004 263.972 3.12231 264.455 2.17458 265C3.04982 265.302 3.85257 265.604 5.16543 266.147C4.14521 266.027 3.55993 265.907 3.48744 265.907C2.24707 266.752 1.29935 267.417 0.13147 268.142C1.80945 268.746 3.70759 269.471 5.60304 270.076C10.3444 271.526 15.0132 273.341 19.9746 274.246C30.0399 276.06 40.3279 276.483 50.3932 274.186C57.2501 272.613 64.1097 270.861 70.7464 268.626C76.073 266.874 81.107 264.395 86.1383 262.038C87.6713 261.313 88.6915 259.803 90.0043 258.716C92.4851 256.599 95.2585 254.606 97.4465 252.309C102.77 246.628 106.492 240.282 108.025 233.09C108.39 231.158 108.9 229.224 109.337 227.229C109.41 227.349 109.482 227.411 109.482 227.471C109.482 223.18 109.482 218.768 109.482 214.719C114.079 216.411 118.82 218.648 123.926 220.038C130.566 221.85 137.35 223.362 144.207 224.329C151.939 225.357 159.964 225.597 167.331 222.937C174.336 220.4 179.952 216.411 180.755 209.522C181.338 204.023 182.14 198.464 181.41 193.025C180.9 189.036 178.129 185.289 176.231 181.482C175.576 180.092 174.408 178.943 173.533 177.613C173.385 177.433 173.606 177.07 173.751 176.828C173.751 176.768 174.116 176.768 174.263 176.768C181.775 178.098 189.145 179.608 196.73 180.695C201.471 181.36 206.287 181.3 211.101 181.482C212.924 181.542 214.75 181.482 216.573 181.24C217.231 181.18 217.741 180.515 218.323 180.152C218.468 180.092 218.688 180.092 218.906 180.092C218.833 180.212 218.761 180.332 218.688 180.393C223.502 181.057 240.572 177.07 241.23 175.076C241.23 175.016 240.937 174.833 240.865 174.773C244.731 172.899 248.889 171.269 252.463 168.972C258.737 164.923 262.603 159.241 265.667 153.32C269.533 145.946 271.868 138.332 271.503 130.294ZM28.2169 265.847C28.2169 265.785 28.2169 265.665 28.2169 265.604C29.8224 265.604 31.5004 265.604 33.1059 265.604C33.1059 265.847 33.1059 266.027 33.1059 266.269C31.5004 266.147 29.8949 266.027 28.2169 265.847ZM49.3729 266.512C48.3527 266.632 47.4023 266.692 46.3821 266.752C46.3821 266.752 46.3096 266.449 46.3096 266.269C47.3298 266.209 48.2776 266.147 49.3005 266.087C49.3005 266.269 49.3005 266.389 49.3729 266.512ZM72.7896 185.531C72.9345 185.349 73.1547 185.229 73.2997 185.047C76.0006 187.221 78.7712 189.338 81.4694 191.513C81.3245 191.633 81.252 191.755 81.107 191.815C78.3336 189.761 75.5603 187.646 72.7896 185.531ZM81.6171 179.305C81.5446 179.427 81.397 179.487 81.3245 179.608C80.6667 179.125 80.0841 178.64 79.7915 178.46C79.574 178.46 79.2089 178.58 79.1364 178.52C78.6263 177.915 78.1135 177.311 77.6034 176.708C77.751 176.646 77.896 176.586 77.9685 176.586C79.2089 177.493 80.3767 178.4 81.6171 179.305ZM88.8392 192.903C85.9933 191.03 83.1474 189.156 80.5217 187.404C80.4492 187.586 80.3767 187.826 80.3042 188.129C77.5309 185.469 75.1978 183.294 73.007 181.12C70.8189 179.003 68.7785 176.828 66.6629 174.653C76.1455 179.003 83.1474 185.349 88.8392 192.903ZM145.083 224.027C147.053 224.027 148.001 224.027 149.021 224.027C149.021 224.207 149.021 224.329 148.949 224.509C148.001 224.389 147.053 224.267 145.083 224.027ZM149.169 218.346C149.169 218.466 149.094 218.588 149.094 218.708C147.708 218.526 146.323 218.346 144.645 218.103C144.572 218.163 144.572 218.286 144.5 218.346C142.674 217.741 140.851 217.136 139.101 216.533C138.736 216.411 138.371 216.351 138.005 216.231C137.495 215.988 136.985 215.686 136.475 215.384C136.985 215.384 137.423 215.324 137.933 215.324C138.516 215.324 139.173 215.264 139.756 215.384C140.121 215.444 140.414 215.746 140.706 215.988C140.486 216.171 140.269 216.351 140.049 216.471C140.049 216.471 140.049 216.471 140.121 216.471C140.631 216.291 141.144 215.988 141.361 216.109C141.654 216.231 141.727 216.653 141.872 216.896C142.164 216.896 142.457 216.956 142.674 216.956C144.862 217.438 146.978 217.863 149.169 218.346ZM150.044 222.212C151.064 222.335 152.012 222.455 153.035 222.575C153.035 222.697 153.035 222.817 153.035 222.937C152.012 222.877 150.992 222.817 150.044 222.697C149.969 222.575 150.044 222.395 150.044 222.212ZM156.973 218.466C155.588 218.466 154.2 218.466 152.815 218.466C152.815 218.406 152.815 218.346 152.815 218.225C154.2 218.225 155.588 218.225 156.973 218.225C156.973 218.346 156.973 218.406 156.973 218.466ZM150.919 165.95C150.261 166.252 149.969 166.495 149.824 166.433C149.169 166.192 148.511 165.83 147.853 165.528C148.073 165.285 148.438 164.863 148.511 164.923C149.241 165.165 149.896 165.467 150.919 165.95ZM156.828 169.334C156.753 169.394 156.681 169.514 156.681 169.577C155.588 169.152 154.493 168.67 153.397 168.247C153.472 168.125 153.545 168.065 153.545 167.945C154.638 168.367 155.733 168.85 156.828 169.334ZM183.526 172.659C183.526 172.779 183.453 172.839 183.453 172.961C181.923 172.779 180.463 172.596 178.929 172.356C178.785 172.356 178.712 172.356 178.567 172.416C178.712 172.596 178.929 172.719 179.37 173.141C177.692 172.659 176.376 172.356 175.139 171.934C175.063 171.934 175.139 171.691 175.139 171.509C175.429 171.569 175.721 171.631 176.086 171.691C175.794 171.631 175.501 171.509 175.139 171.449L175.063 171.509C174.701 170.967 174.336 170.422 173.971 169.879C173.168 169.757 172.293 169.637 171.49 169.577C171.562 169.334 171.635 169.092 171.71 168.912C172.438 169.152 173.24 169.454 173.971 169.697C176.741 170.362 179.515 170.967 182.285 171.631C182.213 171.872 182.068 172.114 181.996 172.356C182.578 172.416 183.088 172.536 183.526 172.659ZM225.4 177.673C224.16 177.795 222.847 177.855 221.607 177.975C221.607 177.795 221.607 177.613 221.534 177.493C222.775 177.373 223.94 177.251 225.18 177.13C225.253 177.13 225.473 177.251 225.545 177.373C225.618 177.433 225.473 177.673 225.4 177.673ZM240.282 172.719C240.647 172.296 240.865 171.872 241.23 171.631C241.375 171.509 241.885 171.812 242.25 171.934C241.595 172.234 240.937 172.476 240.282 172.719ZM244.221 165.89C243.783 166.795 243.053 167.34 242.25 167.762C241.667 168.065 241.01 168.187 240.427 168.427C240.354 168.247 240.282 168.125 240.21 167.945C241.522 167.22 242.835 166.555 244.221 165.89ZM265.449 143.589C264.791 144.979 264.136 146.309 263.478 147.698C263.478 147.758 263.189 147.821 263.113 147.821C262.968 147.758 262.676 147.578 262.751 147.578C263.406 146.189 264.136 144.799 264.866 143.409C265.011 143.409 265.229 143.469 265.449 143.589ZM165.363 30.217L165.436 30.157C165.436 30.217 165.508 30.277 165.508 30.277C165.581 30.3371 165.653 30.3371 165.726 30.3993L165.653 30.4594C165.581 30.3993 165.581 30.3371 165.508 30.277C165.436 30.277 165.436 30.217 165.363 30.217ZM160.109 24.9603C160.257 24.778 160.329 24.6579 160.474 24.4756C161.715 25.1404 162.883 25.7453 164.123 26.4101C163.975 26.5902 163.83 26.7726 163.685 26.9527C162.517 26.2878 161.277 25.6252 160.109 24.9603ZM163.61 14.8672C162.225 14.8672 160.839 14.8672 159.454 14.8672C159.454 14.8072 159.454 14.7472 159.454 14.6849C160.839 14.6849 162.225 14.6849 163.61 14.6849C163.61 14.7472 163.61 14.8072 163.61 14.8672ZM170.615 21.636C170.687 21.636 170.687 21.5759 170.76 21.5759C170.76 21.636 170.687 21.696 170.615 21.636C170.615 21.696 170.615 21.696 170.615 21.636ZM170.98 21.5137C170.907 21.5137 170.907 21.5137 170.832 21.5759C170.832 21.5137 170.832 21.5137 170.907 21.4536C170.907 21.4536 170.907 21.4536 170.98 21.5137ZM250.785 80.678C250.347 80.5579 250.13 80.4979 249.91 80.4378C249.472 80.1354 249.107 79.833 248.669 79.5306C248.452 78.9858 248.307 78.5033 247.794 77.2936C249.034 78.6834 249.837 79.5906 250.785 80.678ZM143.332 217.438C143.987 217.561 144.645 217.621 145.448 217.741C145.228 217.801 145.083 217.923 144.572 218.103C144.572 218.043 144.645 217.983 144.645 217.863C144.28 217.741 143.77 217.621 143.332 217.438ZM78.9914 256.419C84.3153 252.489 89.8594 248.38 94.8208 244.693C94.0906 246.386 82.2722 256.721 78.9914 256.419ZM56.8876 264.215C55.3546 264.215 53.7491 264.215 52.2188 264.215C52.2188 264.092 52.1436 263.972 52.1436 263.852C53.5317 263.55 54.9895 263.247 57.4702 262.765C55.9372 263.368 55.4996 263.49 54.6244 263.852C55.7198 263.852 56.3024 263.852 56.8125 263.852C56.8876 263.972 56.8876 264.092 56.8876 264.215ZM219.564 1.32973C219.636 1.38977 219.636 1.51207 219.709 1.57211C218.251 2.11468 216.718 2.65947 215.26 3.14199C215.26 2.96188 215.26 2.65947 215.332 2.65947C216.718 2.23697 218.178 1.81448 219.564 1.32973ZM141.216 214.054C139.466 213.752 137.788 213.389 136.038 213.089C136.038 213.027 136.038 212.967 136.11 212.907C137.86 213.209 139.611 213.451 141.361 213.752C141.216 213.874 141.216 213.934 141.216 214.054ZM217.083 170.906V170.844C218.323 170.664 219.636 170.542 220.876 170.362C220.876 170.482 220.876 170.604 220.949 170.724C219.636 170.784 218.323 170.844 217.083 170.906ZM257.424 150.78C257.279 150.72 257.132 150.66 257.059 150.6C257.497 149.935 257.934 149.331 258.445 148.666C258.592 148.726 258.665 148.788 258.81 148.848C258.3 149.513 257.862 150.115 257.424 150.78ZM64.3996 261.615C64.3996 261.555 64.3271 261.435 64.3271 261.373C65.0574 261.073 65.7125 260.83 66.4428 260.528C66.5152 260.708 66.5877 260.83 66.6629 261.01C65.8602 261.253 65.1299 261.435 64.3996 261.615ZM98.9044 241.249C98.8319 241.249 98.8319 241.249 98.9044 241.249ZM98.5419 240.524C98.3943 241.009 98.3943 241.249 98.3218 241.431C98.5419 241.371 98.6869 241.309 98.9044 241.249C98.4668 241.611 98.0291 241.914 97.0089 242.639C97.664 241.674 98.0291 241.189 98.5419 240.524ZM213.654 42.6671C213.509 42.6049 213.362 42.5448 213.217 42.4848C213.362 42.4248 213.582 42.3647 213.799 42.3047C213.727 42.4848 213.727 42.6049 213.654 42.6671ZM178.64 172.416C177.837 172.174 176.962 171.994 176.159 171.751C177.107 171.994 178.054 172.174 179.005 172.416C178.857 172.356 178.712 172.356 178.64 172.416Z" fill="white"/>
</g>
<path d="M106.612 207.271C106.612 207.727 106.381 207.956 105.924 207.956C105.667 207.956 105.441 207.869 105.248 207.698C105.06 207.531 104.969 207.342 104.969 207.129C104.969 206.695 105.197 206.48 105.656 206.48C105.905 206.48 106.128 206.557 106.322 206.711C106.515 206.871 106.612 207.058 106.612 207.271Z" fill="white"/>
</svg>
